<svg width="204" height="53" viewBox="0 0 204 53" fill="none" xmlns="http://www.w3.org/2000/svg">
<path d="M195.707 41.7228H185.388V21.0531L183.471 19.8711V16.2611L190.34 14.5679H192.927L193.854 22.1712C194.727 16.9532 197.528 14.3442 202.256 14.3442C202.788 14.3442 203.342 14.4401 203.917 14.6318L202.831 26.0049C202.384 25.6002 201.404 25.3979 199.892 25.3979C197.719 25.3979 196.324 25.9729 195.707 27.123V41.7228Z" fill="#342F2F"/>
<path d="M172.421 38.8793L172.101 39.2307C171.888 39.4863 171.558 39.7844 171.111 40.1252C170.685 40.466 170.185 40.8067 169.61 41.1475C169.056 41.4883 168.374 41.7758 167.565 42.0101C166.756 42.2657 165.925 42.3934 165.073 42.3934C159.323 42.3934 156.447 39.5502 156.447 33.8636C156.447 32.7561 156.65 31.7445 157.054 30.8286C157.459 29.8915 157.981 29.1035 158.62 28.4646C159.259 27.8256 160.025 27.2612 160.92 26.7714C161.814 26.2602 162.709 25.8662 163.604 25.5893C164.519 25.2912 165.478 25.0463 166.479 24.8546C167.48 24.6629 168.374 24.5351 169.162 24.4712C169.95 24.4073 170.706 24.3754 171.431 24.3754V23.8003C171.431 22.5011 171.079 21.5853 170.376 21.0529C169.695 20.5204 168.587 20.2542 167.054 20.2542C165.733 20.2542 164.36 20.4139 162.933 20.7334C161.506 21.0316 160.388 21.3936 159.578 21.8196L157.534 17.4748C158.982 16.5377 160.867 15.7177 163.188 15.0149C165.51 14.2908 167.874 13.9287 170.28 13.9287C172.41 13.9287 174.167 14.1417 175.552 14.5676C176.936 14.9723 178.054 15.6751 178.906 16.6761C179.779 17.6559 180.397 18.9124 180.759 20.4459C181.121 21.958 181.302 23.8855 181.302 26.2283V39.2307L182.197 41.7226H173.443L172.421 38.8793ZM169.897 36.7708C170.174 36.7708 170.43 36.7175 170.664 36.611C170.919 36.4833 171.111 36.3661 171.239 36.2596C171.367 36.1318 171.431 36.0679 171.431 36.0679V28.4007C170.131 28.4007 169.098 28.7627 168.332 29.4869C167.565 30.1897 167.182 31.2866 167.182 32.7774C167.182 35.4397 168.087 36.7708 169.897 36.7708Z" fill="#342F2F"/>
<path d="M140.876 52.9998C139.214 52.9998 137.34 52.6164 135.253 51.8497C133.166 51.1043 131.813 50.3908 131.196 49.7092L133.208 45.3325C133.741 45.7372 134.603 46.1099 135.796 46.4506C136.989 46.7914 138.011 46.9618 138.863 46.9618C139.715 46.9618 140.45 46.8447 141.067 46.6104C141.706 46.3974 142.196 46.1205 142.537 45.7798C142.878 45.4603 143.154 45.0556 143.367 44.5658C143.58 44.0972 143.708 43.6713 143.751 43.2879C143.815 42.9045 143.857 42.4786 143.879 42.01V39.2945C142.068 41.1688 139.864 42.1059 137.266 42.1059C133.751 42.1059 131.174 40.9025 129.534 38.4959C127.894 36.0892 127.074 32.7454 127.074 28.4645C127.074 26.4625 127.298 24.6202 127.745 22.9377C128.193 21.2339 128.842 19.743 129.694 18.4651C130.567 17.1659 131.696 16.1543 133.08 15.4302C134.465 14.6847 136.03 14.312 137.777 14.312C140.418 14.312 142.707 14.8977 144.645 16.0691L145.188 14.5676H150.076L156.082 14.8551V17.8581L154.165 19.1999V40.5405C154.165 48.8467 149.736 52.9998 140.876 52.9998ZM141.898 36.2915C142.537 36.2915 143.197 36.1105 143.879 35.7484V18.9124C143.367 18.8059 142.899 18.7526 142.473 18.7526C139.64 18.7739 138.213 20.957 138.192 25.3018V30.2535C138.192 31.6166 138.373 32.788 138.735 33.7677C139.374 35.4502 140.428 36.2915 141.898 36.2915Z" fill="#342F2F"/>
<path d="M113.882 41.7227V21.053L111.965 19.871V16.4527L118.834 14.5678H124.169V41.7227H113.882ZM118.514 11.6287L113.275 6.35745V5.2393L118.514 0H119.728L125.191 5.2393V6.35745L119.728 11.6287H118.514Z" fill="#342F2F"/>
<path d="M89.0593 41.7226H78.9002V7.28377L77.3348 4.28076H89.0913L94.9695 16.4206L100.592 28.5285L99.0268 14.3121V4.28076H109.218V41.7226H99.474L91.8706 26.9311L87.1744 17.6665L89.0593 29.9342V41.7226Z" fill="#342F2F"/>
<path d="M56.5845 42.3299L51.3452 37.0586V35.9405L56.5845 30.7012H57.7984L63.2614 35.9405V37.0586L57.7984 42.3299H56.5845Z" fill="#342F2F"/>
<path d="M42.586 41.7228H32.2672V21.0531L30.3503 19.8711V16.2611L37.2189 14.5679H39.8066L40.7331 22.1712C41.6063 16.9532 44.407 14.3442 49.1352 14.3442C49.6676 14.3442 50.2213 14.4401 50.7964 14.6318L49.7102 26.0049C49.2629 25.6002 48.2832 25.3979 46.7711 25.3979C44.5987 25.3979 43.2037 25.9729 42.586 27.123V41.7228Z" fill="#342F2F"/>
<path d="M12.619 36.4832C14.2377 36.4832 15.473 35.4822 16.3249 33.4802C17.1981 31.4782 17.6347 28.177 17.6347 23.5766V20.35C17.6347 16.9849 17.2301 14.3866 16.4207 12.5549C15.6114 10.7233 14.4613 9.80751 12.9705 9.80751H10.5744V36.4832H12.619ZM13.6094 41.9461C12.8427 41.9461 11.65 41.9035 10.0313 41.8184C8.434 41.7545 6.7834 41.7225 5.07957 41.7225H0V4.28069H5.07957C6.50653 4.25939 8.06128 4.20614 9.74382 4.12095C11.4264 4.03576 12.7468 3.99316 13.7052 3.99316C19.1362 3.99316 23.0231 5.51597 25.3659 8.56158C27.73 11.6072 28.912 16.0478 28.912 21.8835C28.912 23.8642 28.7736 25.749 28.4967 27.5381C28.2411 29.3271 27.7513 31.1268 27.0271 32.9371C26.303 34.7261 25.3872 36.2702 24.2797 37.5694C23.1722 38.8686 21.7026 39.9228 19.871 40.7322C18.0394 41.5415 15.9522 41.9461 13.6094 41.9461Z" fill="#342F2F"/>
</svg>
