<svg width="493" height="50" viewBox="0 0 493 50" fill="none" xmlns="http://www.w3.org/2000/svg">
<g filter="url(#filter0_d_1_41)">
<path d="M4.8 25.44H6.8V7.48H4.8V0.879998H21.04C25.4933 0.879998 29.0267 2.10666 31.64 4.56C34.28 6.98667 35.6 10.9467 35.6 16.44C35.6 21.9333 34.28 25.9067 31.64 28.36C29.0267 30.7867 25.4933 32 21.04 32H4.8V25.44ZM20.32 25.44C21.2267 25.44 21.9067 25.2 22.36 24.72C22.8133 24.24 23.04 23.4933 23.04 22.48V10.4C23.04 8.42667 22.1333 7.44 20.32 7.44H18V25.44H20.32ZM53.9484 9.2C54.4818 9.2 54.9884 9.25333 55.4684 9.36C55.9484 9.46667 56.3484 9.6 56.6684 9.76V17.4C55.5751 16.9467 54.4018 16.72 53.1484 16.72C51.4684 16.72 50.1751 17.16 49.2684 18.04C48.3618 18.92 47.9084 20.2267 47.9084 21.96V25.44H51.5084V32H36.9484V25.44H38.7084V16.32H36.9484V9.76H47.9084V12.68C48.6551 11.56 49.5084 10.7067 50.4684 10.12C51.4284 9.50666 52.5884 9.2 53.9484 9.2ZM55.2484 32V25.44H61.4884V32H55.2484ZM99.2463 0.879998H112.366V7.44H110.366V32H99.1263L87.4063 13.96V25.44H89.3263V32H76.2063V25.44H78.2063V7.44H76.2063V0.879998H90.6463L101.166 16.92V7.44H99.2463V0.879998ZM115.742 7.56V0.879998H123.902V7.56H115.742ZM113.822 32V25.44H115.582V16.32H113.822V9.76H124.782V25.44H126.542V32H113.822ZM139.37 41.44C137.45 41.44 135.61 41.3067 133.85 41.04C132.116 40.7733 130.77 40.4667 129.81 40.12V33.56C132.636 34.0667 135.17 34.32 137.41 34.32C138.93 34.32 140.023 34.08 140.69 33.6C141.383 33.1467 141.73 32.28 141.73 31V29.28C141.063 30.1333 140.196 30.8933 139.13 31.56C138.09 32.2267 136.89 32.56 135.53 32.56C132.81 32.56 130.756 31.5467 129.37 29.52C128.01 27.4933 127.33 24.6133 127.33 20.88C127.33 17.1467 128.01 14.2667 129.37 12.24C130.756 10.2133 132.81 9.2 135.53 9.2C136.89 9.2 138.09 9.53333 139.13 10.2C140.196 10.8667 141.063 11.6267 141.73 12.48V9.76H152.69V16.32H150.93V30.4C150.93 34.2667 149.97 37.0667 148.05 38.8C146.13 40.56 143.236 41.44 139.37 41.44ZM139.41 25.44C140.183 25.44 140.756 25.24 141.13 24.84C141.53 24.4133 141.73 23.76 141.73 22.88V18.88C141.73 18 141.53 17.36 141.13 16.96C140.756 16.5333 140.183 16.32 139.41 16.32C138.636 16.32 138.05 16.5333 137.65 16.96C137.276 17.36 137.09 18 137.09 18.88V22.88C137.09 23.76 137.276 24.4133 137.65 24.84C138.05 25.24 138.636 25.44 139.41 25.44ZM177.142 25.44V32H166.582V29.28C165.995 30.1333 165.168 30.8933 164.102 31.56C163.062 32.2267 161.782 32.56 160.262 32.56C158.262 32.56 156.688 32.0267 155.542 30.96C154.395 29.8933 153.822 28.3867 153.822 26.44C153.822 21.4 158.102 18.8133 166.662 18.68C166.582 17.7733 166.235 17.16 165.622 16.84C165.008 16.4933 163.968 16.32 162.502 16.32C161.302 16.32 160.008 16.4533 158.622 16.72C157.262 16.96 156.008 17.2933 154.862 17.72V10.36C156.275 10.0133 157.808 9.73333 159.462 9.52C161.115 9.30666 162.728 9.2 164.302 9.2C168.275 9.2 171.115 9.92 172.822 11.36C174.528 12.8 175.382 15.0267 175.382 18.04V25.44H177.142ZM166.582 22.64C165.382 22.64 164.448 22.8 163.782 23.12C163.142 23.44 162.822 23.9733 162.822 24.72C162.822 25.1733 162.955 25.5467 163.222 25.84C163.515 26.1067 163.915 26.24 164.422 26.24C165.115 26.24 165.648 25.9467 166.022 25.36C166.395 24.7733 166.582 23.9467 166.582 22.88V22.64ZM195.511 9.2C196.044 9.2 196.551 9.25333 197.031 9.36C197.511 9.46667 197.911 9.6 198.231 9.76V17.4C197.138 16.9467 195.964 16.72 194.711 16.72C193.031 16.72 191.738 17.16 190.831 18.04C189.924 18.92 189.471 20.2267 189.471 21.96V25.44H193.071V32H178.511V25.44H180.271V16.32H178.511V9.76H189.471V12.68C190.218 11.56 191.071 10.7067 192.031 10.12C192.991 9.50666 194.151 9.2 195.511 9.2ZM255.717 7.44H253.717V25.44H255.717V32H240.597V25.44H242.517V11.44L235.717 32H229.797L222.797 11.64V25.44H224.717V32H211.597V25.44H213.597V7.44H211.597V0.879998H229.917L234.077 13.36L238.077 0.879998H255.717V7.44ZM267.86 32.56C263.993 32.56 261.207 31.5867 259.5 29.64C257.82 27.6667 256.98 25.2267 256.98 22.32V19.44H269.94V19.2C269.94 18.2133 269.607 17.4933 268.94 17.04C268.3 16.56 267.233 16.32 265.74 16.32C263.18 16.32 260.487 16.7467 257.66 17.6V11.2C259.02 10.6133 260.593 10.1333 262.38 9.76C264.193 9.38666 265.94 9.2 267.62 9.2C271.407 9.2 274.367 10.2 276.5 12.2C278.633 14.1733 279.7 17.08 279.7 20.92C279.7 24.7333 278.647 27.6267 276.54 29.6C274.46 31.5733 271.567 32.56 267.86 32.56ZM267.62 26.88C268.393 26.88 268.967 26.68 269.34 26.28C269.74 25.8533 269.94 25.2 269.94 24.32V23.84H265.3V24.32C265.3 25.2267 265.487 25.88 265.86 26.28C266.26 26.68 266.847 26.88 267.62 26.88ZM321.37 25.44V32H308.73V25.44H310.41V18.88C310.41 18 310.223 17.36 309.85 16.96C309.477 16.5333 308.917 16.32 308.17 16.32C306.57 16.32 305.77 17.1733 305.77 18.88V25.44H307.45V32H294.89V25.44H296.57V18.88C296.57 18 296.383 17.36 296.01 16.96C295.637 16.5333 295.077 16.32 294.33 16.32C292.73 16.32 291.93 17.1733 291.93 18.88V25.44H293.61V32H280.97V25.44H282.73V16.32H280.97V9.76H291.93V12.88C293.85 10.4267 296.25 9.2 299.13 9.2C300.757 9.2 302.077 9.58667 303.09 10.36C304.13 11.1067 304.863 12.1733 305.29 13.56C306.25 12.1733 307.343 11.1067 308.57 10.36C309.823 9.61333 311.29 9.24 312.97 9.24C315.183 9.24 316.837 9.93333 317.93 11.32C319.05 12.7067 319.61 14.6133 319.61 17.04V25.44H321.37ZM363.05 25.44V32H350.41V25.44H352.09V18.88C352.09 18 351.903 17.36 351.53 16.96C351.156 16.5333 350.596 16.32 349.85 16.32C348.25 16.32 347.45 17.1733 347.45 18.88V25.44H349.13V32H336.57V25.44H338.25V18.88C338.25 18 338.063 17.36 337.69 16.96C337.316 16.5333 336.756 16.32 336.01 16.32C334.41 16.32 333.61 17.1733 333.61 18.88V25.44H335.29V32H322.65V25.44H324.41V16.32H322.65V9.76H333.61V12.88C335.53 10.4267 337.93 9.2 340.81 9.2C342.436 9.2 343.756 9.58667 344.77 10.36C345.81 11.1067 346.543 12.1733 346.97 13.56C347.93 12.1733 349.023 11.1067 350.25 10.36C351.503 9.61333 352.97 9.24 354.65 9.24C356.863 9.24 358.516 9.93333 359.61 11.32C360.73 12.7067 361.29 14.6133 361.29 17.04V25.44H363.05ZM374.969 32.56C371.103 32.56 368.316 31.5867 366.609 29.64C364.929 27.6667 364.089 25.2267 364.089 22.32V19.44H377.049V19.2C377.049 18.2133 376.716 17.4933 376.049 17.04C375.409 16.56 374.343 16.32 372.849 16.32C370.289 16.32 367.596 16.7467 364.769 17.6V11.2C366.129 10.6133 367.703 10.1333 369.489 9.76C371.303 9.38666 373.049 9.2 374.729 9.2C378.516 9.2 381.476 10.2 383.609 12.2C385.743 14.1733 386.809 17.08 386.809 20.92C386.809 24.7333 385.756 27.6267 383.649 29.6C381.569 31.5733 378.676 32.56 374.969 32.56ZM374.729 26.88C375.503 26.88 376.076 26.68 376.449 26.28C376.849 25.8533 377.049 25.2 377.049 24.32V23.84H372.409V24.32C372.409 25.2267 372.596 25.88 372.969 26.28C373.369 26.68 373.956 26.88 374.729 26.88ZM395.959 32.56C393.239 32.56 391.186 31.5467 389.799 29.52C388.439 27.4933 387.759 24.6133 387.759 20.88C387.759 17.1467 388.439 14.2667 389.799 12.24C391.186 10.2133 393.239 9.2 395.959 9.2C397.319 9.2 398.519 9.53333 399.559 10.2C400.626 10.8667 401.493 11.6267 402.159 12.48V7.44H399.799V0.879998H411.359V25.44H413.119V32H402.159V29.28C401.493 30.1333 400.626 30.8933 399.559 31.56C398.519 32.2267 397.319 32.56 395.959 32.56ZM399.839 25.44C400.613 25.44 401.186 25.24 401.559 24.84C401.959 24.4133 402.159 23.76 402.159 22.88V18.88C402.159 18 401.959 17.36 401.559 16.96C401.186 16.5333 400.613 16.32 399.839 16.32C399.066 16.32 398.479 16.5333 398.079 16.96C397.706 17.36 397.519 18 397.519 18.88V22.88C397.519 23.76 397.706 24.4133 398.079 24.84C398.479 25.24 399.066 25.44 399.839 25.44ZM426.328 32.56C422.541 32.56 419.581 31.5733 417.448 29.6C415.314 27.6 414.248 24.6933 414.248 20.88C414.248 17.0667 415.314 14.1733 417.448 12.2C419.581 10.2 422.541 9.2 426.328 9.2C430.168 9.2 433.141 10.2133 435.248 12.24C437.354 14.24 438.408 17.12 438.408 20.88C438.408 24.6933 437.341 27.6 435.208 29.6C433.074 31.5733 430.114 32.56 426.328 32.56ZM426.328 25.44C427.101 25.44 427.674 25.24 428.048 24.84C428.448 24.4133 428.648 23.76 428.648 22.88V18.88C428.648 18 428.448 17.36 428.048 16.96C427.674 16.5333 427.101 16.32 426.328 16.32C425.554 16.32 424.968 16.5333 424.568 16.96C424.194 17.36 424.008 18 424.008 18.88V22.88C424.008 23.76 424.194 24.4133 424.568 24.84C424.968 25.24 425.554 25.44 426.328 25.44ZM446.081 32L441.041 16.32H439.361V9.76H451.721V16.32H450.041L452.161 24.24H452.561L454.681 16.32H453.001V9.76H464.601V16.32H462.921L458.001 32H446.081ZM488.665 25.44V32H478.105V29.28C477.518 30.1333 476.692 30.8933 475.625 31.56C474.585 32.2267 473.305 32.56 471.785 32.56C469.785 32.56 468.212 32.0267 467.065 30.96C465.918 29.8933 465.345 28.3867 465.345 26.44C465.345 21.4 469.625 18.8133 478.185 18.68C478.105 17.7733 477.758 17.16 477.145 16.84C476.532 16.4933 475.492 16.32 474.025 16.32C472.825 16.32 471.532 16.4533 470.145 16.72C468.785 16.96 467.532 17.2933 466.385 17.72V10.36C467.798 10.0133 469.332 9.73333 470.985 9.52C472.638 9.30666 474.252 9.2 475.825 9.2C479.798 9.2 482.638 9.92 484.345 11.36C486.052 12.8 486.905 15.0267 486.905 18.04V25.44H488.665ZM478.105 22.64C476.905 22.64 475.972 22.8 475.305 23.12C474.665 23.44 474.345 23.9733 474.345 24.72C474.345 25.1733 474.478 25.5467 474.745 25.84C475.038 26.1067 475.438 26.24 475.945 26.24C476.638 26.24 477.172 25.9467 477.545 25.36C477.918 24.7733 478.105 23.9467 478.105 22.88V22.64Z" fill="white"/>
</g>
<defs>
<filter id="filter0_d_1_41" x="0.799988" y="0.880005" width="491.865" height="48.56" filterUnits="userSpaceOnUse" color-interpolation-filters="sRGB">
<feFlood flood-opacity="0" result="BackgroundImageFix"/>
<feColorMatrix in="SourceAlpha" type="matrix" values="0 0 0 0 0 0 0 0 0 0 0 0 0 0 0 0 0 0 127 0" result="hardAlpha"/>
<feOffset dy="4"/>
<feGaussianBlur stdDeviation="2"/>
<feComposite in2="hardAlpha" operator="out"/>
<feColorMatrix type="matrix" values="0 0 0 0 0 0 0 0 0 0 0 0 0 0 0 0 0 0 0.25 0"/>
<feBlend mode="normal" in2="BackgroundImageFix" result="effect1_dropShadow_1_41"/>
<feBlend mode="normal" in="SourceGraphic" in2="effect1_dropShadow_1_41" result="shape"/>
</filter>
</defs>
</svg>
