<svg width="36" height="36" viewBox="0 0 36 36" fill="none" xmlns="http://www.w3.org/2000/svg">
<path d="M13.0078 17.5499C14.1655 19.9406 16.0986 21.8687 18.4922 23.0202C18.6687 23.1038 18.864 23.14 19.0588 23.1252C19.2536 23.1104 19.4412 23.0452 19.6031 22.9359L23.1187 20.5874C23.2741 20.4821 23.4536 20.4178 23.6404 20.4006C23.8273 20.3834 24.0155 20.4138 24.1875 20.489L30.7687 23.3155C30.9937 23.4092 31.1816 23.5741 31.3036 23.785C31.4255 23.9959 31.4748 24.2411 31.4437 24.4827C31.2352 26.1108 30.4405 27.6071 29.2084 28.6916C27.9764 29.7761 26.3914 30.3746 24.75 30.3749C19.6777 30.3749 14.8132 28.36 11.2266 24.7733C7.63995 21.1867 5.625 16.3222 5.625 11.2499C5.62537 9.60855 6.2238 8.02354 7.30832 6.79149C8.39283 5.55944 9.88912 4.76477 11.5172 4.55617C11.7588 4.52513 12.004 4.57439 12.2149 4.69636C12.4258 4.81833 12.5908 5.00625 12.6844 5.23117L15.5109 11.8265C15.5844 11.9957 15.6152 12.1804 15.6005 12.3644C15.5858 12.5483 15.526 12.7258 15.4266 12.8812L13.0781 16.453C12.9736 16.6146 12.9122 16.8003 12.8999 16.9923C12.8876 17.1844 12.9247 17.3763 13.0078 17.5499V17.5499Z" stroke="#342F2F" stroke-width="2" stroke-linecap="round" stroke-linejoin="round"/>
</svg>
