<svg width="121" height="120" viewBox="0 0 121 120" fill="none" xmlns="http://www.w3.org/2000/svg">
<path d="M71.12 48.1836H90.6765M56.623 48.1836H58.0045M71.12 71.812H90.6765M56.623 71.812H58.0045" stroke="white" stroke-width="8" stroke-linecap="round" stroke-linejoin="round"/>
<path d="M41.5897 26.3797V47.9165V89.1025C41.5897 96.2925 35.7616 102.121 28.5664 102.121H89.2555C99.676 102.121 105.456 95.1055 105.456 83.761L105.5 26.3797C105.5 22.23 101.53 19.5349 98.0855 21.3008L94.821 23.023C92.875 24.0397 90.6275 24.0835 88.594 23.1981L79.37 19.097C75.6195 17.4624 71.4695 17.4624 67.719 19.097L58.49 23.1981C56.4615 24.0835 54.209 24.0397 52.268 23.023L49.0037 21.3008C45.5594 19.5349 41.5897 22.2738 41.5897 26.3797Z" stroke="white" stroke-width="8" stroke-linecap="round" stroke-linejoin="round"/>
<path d="M28.567 102.121C24.9475 102.121 21.6833 100.667 19.3433 98.3265C16.9595 95.9425 15.5 92.678 15.5 89.1025V52.864C15.5 48.7096 19.4746 46.0193 22.9189 47.7852L26.1833 49.5074C28.1244 50.524 30.3768 50.568 32.4054 49.6826L38.6325 46.9047C39.1141 46.681 40.3498 47.255 41.5903 47.9166" stroke="white" stroke-width="8" stroke-linecap="round" stroke-linejoin="round"/>
</svg>
