<svg width="121" height="120" viewBox="0 0 121 120" fill="none" xmlns="http://www.w3.org/2000/svg">
<path d="M60.5 105C85.3528 105 105.5 84.8528 105.5 60C105.5 35.1472 85.3528 15 60.5 15C35.6472 15 15.5 35.1472 15.5 60C15.5 84.8528 35.6472 105 60.5 105Z" stroke="white" stroke-width="8" stroke-linecap="round" stroke-linejoin="round"/>
<path d="M43.625 56.25C46.7316 56.25 49.25 53.7316 49.25 50.625C49.25 47.5184 46.7316 45 43.625 45C40.5184 45 38 47.5184 38 50.625C38 53.7316 40.5184 56.25 43.625 56.25Z" fill="white"/>
<path d="M77.375 56.25C80.4816 56.25 83 53.7316 83 50.625C83 47.5184 80.4816 45 77.375 45C74.2684 45 71.75 47.5184 71.75 50.625C71.75 53.7316 74.2684 56.25 77.375 56.25Z" fill="white"/>
<path d="M80 71.25C78.0176 74.6653 75.173 77.5001 71.7508 79.4706C68.3286 81.4411 64.4489 82.4782 60.5 82.4782C56.5511 82.4782 52.6714 81.4411 49.2492 79.4706C45.827 77.5001 42.9824 74.6653 41 71.25" stroke="white" stroke-width="8" stroke-linecap="round" stroke-linejoin="round"/>
</svg>
