<svg width="36" height="36" viewBox="0 0 36 36" fill="none" xmlns="http://www.w3.org/2000/svg">
<path d="M6.38437 24.8907C4.70937 22.0647 4.12347 18.7245 4.73668 15.4972C5.34988 12.2698 7.12002 9.37729 9.71477 7.36257C12.3095 5.34785 15.5504 4.34951 18.8291 4.55499C22.1078 4.76046 25.1987 6.15561 27.5216 8.47852C29.8445 10.8014 31.2396 13.8924 31.4451 17.171C31.6506 20.4497 30.6523 23.6906 28.6375 26.2853C26.6228 28.8801 23.7303 30.6502 20.5029 31.2634C17.2756 31.8766 13.9354 31.2907 11.1094 29.6157V29.6157L6.44062 30.9376C6.24934 30.9936 6.04653 30.997 5.85345 30.9476C5.66038 30.8982 5.48414 30.7978 5.34321 30.6569C5.20229 30.516 5.10187 30.3397 5.05248 30.1467C5.00309 29.9536 5.00655 29.7508 5.0625 29.5595L6.38437 24.8907Z" stroke="#342F2F" stroke-width="2" stroke-linecap="round" stroke-linejoin="round"/>
<path d="M21.3891 25.875C19.9088 25.8787 18.4424 25.5899 17.0741 25.0252C15.7058 24.4604 14.4626 23.6308 13.4159 22.5841C12.3692 21.5374 11.5396 20.2942 10.9749 18.9259C10.4101 17.5576 10.1213 16.0912 10.125 14.611C10.1287 13.5691 10.5452 12.5712 11.2832 11.8358C12.0212 11.1004 13.0206 10.6875 14.0625 10.6875V10.6875C14.2344 10.6862 14.4035 10.7311 14.552 10.8178C14.7004 10.9044 14.8228 11.0294 14.9062 11.1797L16.5516 14.0485C16.6494 14.2229 16.6996 14.4199 16.6971 14.6199C16.6947 14.8198 16.6396 15.0156 16.5375 15.1875L15.2156 17.3953C15.8927 18.9016 17.0985 20.1073 18.6047 20.7844L20.8125 19.4625C20.9844 19.3604 21.1802 19.3053 21.3801 19.3029C21.5801 19.3004 21.7772 19.3506 21.9516 19.4485L24.8203 21.0938C24.9706 21.1772 25.0957 21.2996 25.1823 21.4481C25.2689 21.5966 25.3139 21.7656 25.3125 21.9375C25.3088 22.9783 24.8947 23.9755 24.1601 24.7127C23.4255 25.45 22.4298 25.8676 21.3891 25.875V25.875Z" stroke="#342F2F" stroke-width="2" stroke-linecap="round" stroke-linejoin="round"/>
</svg>
